<?xml version="1.0"?>
<svg xmlns="http://www.w3.org/2000/svg" xmlns:xlink="http://www.w3.org/1999/xlink" version="1.1" id="Capa_1" x="0px" y="0px" viewBox="0 0 383.035 383.035" style="enable-background:new 0 0 383.035 383.035;" xml:space="preserve" width="512px" height="512px" class=""><g><path d="M368.119,98.592l-0.149-1.074h-0.837l-0.232,0.276c-5.592,1.253-10.381,2.411-14.656,3.332  c-20.385,4.396-28.919,6.298-56.274,17.156c-4.461-5.397-18.315-20.013-37.142-20.013c-5.75,0-11.512,1.408-17.126,4.154  c-14.55,7.118-22.864,18.943-32.223,33.652c-2.877,4.524-5.892,9.792-8.802,15.362c-0.423-2.68-0.788-5.255-0.999-7.613l-0.39-4.417  c-1.617-18.377-2.162-24.568-6.026-44.636c-3.762-19.542-16.447-37.764-27.638-53.841c-1.079-1.55-2.145-3.081-3.188-4.593  C153.226,22.991,133.025,0,128.588,0c-0.452,0-0.854,0.172-1.133,0.484c-0.329,0.369-0.457,0.889-0.382,1.546  c0.928,8.077-1.002,16.576-2.868,24.795c-0.495,2.183-1.007,4.439-1.445,6.612c-1.178,5.821-3.151,10.519-4.892,14.664  c-3.4,8.098-6.338,15.091-1.555,26.086c5.307,12.2,9.608,21.542,12.96,28.536C117.826,87.9,97.333,66.071,68.829,53.931  c-18.219-7.76-50.607-18.125-52.724-18.125l-0.729,0.017l-0.503,1.251l0.462,0.476c3.56,3.667,8.241,8.241,13.661,13.538  c20.366,19.902,51.143,49.978,58.514,68.14c2.404,5.921,4.619,10.929,6.572,15.347c6.593,14.909,10.573,23.908,11.879,44.2  c0.344,5.362,0.136,11.04-0.084,17.05c-0.586,15.985-1.192,32.514,9.036,43.418l0.458,0.488c0.776,0.829,1.635,1.744,2.576,2.705  c-5.096,4.121-5.826,5.004-7.622,7.177c-0.892,1.079-2.113,2.556-4.34,4.979c-12.708,13.818-55.959,98.653-52.082,110.885  c1.307,4.123,3.823,4.988,5.703,4.988c5.787,0,13.933-8.277,19.311-14.693c-4.471,10.313-7.883,22.082-2.022,25.241  c0.887,0.478,1.826,0.72,2.792,0.72c6.139,0,12.516-10.06,17.75-20.54c-3.412,11.304-3.433,18.057-0.107,20.478  c1.245,0.906,2.563,1.365,3.919,1.365c7.217,0,13.629-13.217,17.872-21.963c0.865-1.782,1.611-3.32,2.25-4.516  c1.52-2.841,3.11-5.524,4.73-8.1c-2.082,4.949-3.792,9.802-4.336,13.398c-0.591,3.909,0.489,6.239,1.499,7.413  c1.188,1.381,2.964,2.25,5.002,2.25c0,0,0.001,0,0.001,0c3.594,0,7.058-2.324,8.422-5.497c9.056-21.055,13.48-33.004,16.407-40.874  c4.086-10.986,5.319-14.328,12.382-24.322c8.636-12.221,22.315-17.566,36.798-23.211c11.892-4.635,24.189-9.434,33.618-18.403  c18.672-17.762,28.431-49.982,34.146-72.669l0.621-2.476c5.106-20.361,9.517-37.947,28.947-55.555  c4.348-3.94,25.858-13.052,63.935-27.082c1.859-0.685,2.987-1.101,3.663-1.405c0.043-0.01,0.087-0.02,0.131-0.03l-0.006-0.152  C368.243,99.413,368.207,99.083,368.119,98.592z" data-original="#000000" class="active-path" data-old_color="#000000" fill="#F7C10E"/></g> </svg>
